<svg viewBox="0 0 32 32" version="1.1" xmlns="http://www.w3.org/2000/svg">
    <g id="Artboard" stroke="none" stroke-width="1" fill="none" fill-rule="evenodd">
        <g transform="translate(2.000000, 2.000000)">
            <path d="M14,0 C6.2680135,0 0,6.2680135 0,14 C0,21.7319865 6.2680135,28 14,28 C21.7319865,28 28,21.7319865 28,14 C28,10.2869691 26.5250042,6.72601436 23.8994949,4.10050506 C21.2739856,1.47499577 17.7130309,0 14,0 Z" id="Fill" fill="#054ADA"></path>
            <path d="M14,5 C14.8284271,5 15.5,5.67157288 15.5,6.5 C15.5,7.32842712 14.8284271,8 14,8 C13.1715729,8 12.5,7.32842712 12.5,6.5 C12.5,5.67157288 13.1715729,5 14,5 L14,5 Z" id="Path" fill="#FFFFFF"></path>
            <polygon id="Path" fill="#FFFFFF" points="18 22.12 10 22.12 10 19.88 12.88 19.88 12.88 13.12 11 13.12 11 10.88 15.13 10.88 15.13 19.88 18 19.88"></polygon>
        </g>
    </g>
</svg>