<svg xmlns="http://www.w3.org/2000/svg" version="1" viewBox="0 0 149 178"><path fill="{mapIconColor}" stroke="#FFF" stroke-miterlimit="10" stroke-width="6" d="M126 23l-6-6A69 69 0 0 0 74 1a69 69 0 0 0-51 22A70 70 0 0 0 1 74c0 21 7 38 22 52l43 47c6 6 11 6 16 0l48-51c12-13 18-29 18-48 0-20-8-37-22-51z"/><circle cx="74" cy="75" r="61" fill="#fff"/><circle cx="74" cy="75" r="{pinInnerCircleRadius}" fill="{mapIconColorInnerCircle}"/><svg xmlns="http://www.w3.org/2000/svg" viewBox="-11.3 -6 55 55"><path fill="#3151b7" d="M16 2a14 14 0 1 0 14 14A14 14 0 0 0 16 2zm0 5a1.5 1.5 0 1 1-1.5 1.5A1.5 1.5 0 0 1 16 7zm4 17.12h-8v-2.24h2.88v-6.76H13v-2.24h4.13v9H20z"/></svg></svg>