<svg xmlns="http://www.w3.org/2000/svg" version="1" viewBox="0 0 149 178"><path fill="{mapIconColor}" stroke="#FFF" stroke-miterlimit="10" stroke-width="6" d="M126 23l-6-6A69 69 0 0 0 74 1a69 69 0 0 0-51 22A70 70 0 0 0 1 74c0 21 7 38 22 52l43 47c6 6 11 6 16 0l48-51c12-13 18-29 18-48 0-20-8-37-22-51z"/><circle cx="74" cy="75" r="61" fill="#fff"/><circle cx="74" cy="75" r="{pinInnerCircleRadius}" fill="{mapIconColorInnerCircle}"/><svg xmlns="http://www.w3.org/2000/svg" viewBox="-11.3 -9 55 55"><path fill="#fc991e" d="M29.86 2.49A1 1 0 0 0 29 2H3a1.002 1.002 0 0 0-.88 1.478l13 25.037a1.04 1.04 0 0 0 1.759 0l13-25.037a1.003 1.003 0 0 0-.02-.989zM14.874 5h2.25v10h-2.25zM16 21a1.5 1.5 0 1 1 1.5-1.5A1.5 1.5 0 0 1 16 21z"/><path d="M14.875 5h2.25v10h-2.25zM16 21a1.5 1.5 0 1 1 1.5-1.5A1.5 1.5 0 0 1 16 21z" opacity="0"/></svg></svg>