<svg version="1" xmlns="http://www.w3.org/2000/svg" viewBox="0 0 149 178"><path fill="{mapIconColor}" stroke="#FFF" stroke-width="6" stroke-miterlimit="10" d="M126 23l-6-6A69 69 0 0 0 74 1a69 69 0 0 0-51 22A70 70 0 0 0 1 74c0 21 7 38 22 52l43 47c6 6 11 6 16 0l48-51c12-13 18-29 18-48 0-20-8-37-22-51z"/>
    <circle fill="#ffffff" cx="74" cy="75" r="61"/><circle fill="{mapIconColorInnerCircle}" cx="74" cy="75" r="{pinInnerCircleRadius}"/>
        <svg xmlns="http://www.w3.org/2000/svg" viewBox="-11.3 -4 55 55">
            <path fill="#fdd13a" d="M29.88 27.52l-13-25a1 1 0 0 0-1.76 0l-13 25a1 1 0 0 0 0 1A1 1 0 0 0 3 29h26a1 1 0 0 0 .86-.49 1 1 0 0 0 .02-.99zM14.88 10h2.25v10h-2.25zM16 26a1.5 1.5 0 1 1 1.5-1.5A1.5 1.5 0 0 1 16 26z"/>
	    <path d="M14.88 10h2.25v10h-2.25zM16 26a1.5 1.5 0 1 1 1.5-1.5A1.5 1.5 0 0 1 16 26z"/>
        </svg>
</svg>
