<svg xmlns="http://www.w3.org/2000/svg" version="1" viewBox="0 0 149 178"><path fill="{mapIconColor}" stroke="#FFF" stroke-miterlimit="10" stroke-width="6" d="M126 23l-6-6A69 69 0 0 0 74 1a69 69 0 0 0-51 22A70 70 0 0 0 1 74c0 21 7 38 22 52l43 47c6 6 11 6 16 0l48-51c12-13 18-29 18-48 0-20-8-37-22-51z"/><circle cx="74" cy="75" r="61" fill="#fff"/><circle cx="74" cy="75" r="{pinInnerCircleRadius}" fill="{mapIconColorInnerCircle}"/><svg xmlns="http://www.w3.org/2000/svg" viewBox="-11.3 -6 55 55"><path d="M16 2C8.3 2 2 8.3 2 16s6.3 14 14 14 14-6.3 14-14S23.7 2 16 2zm5.4 21L16 17.6 10.6 23 9 21.4l5.4-5.4L9 10.6 10.6 9l5.4 5.4L21.4 9l1.6 1.6-5.4 5.4 5.4 5.4-1.6 1.6z"/><path d="M21.4 23L16 17.6 10.6 23 9 21.4l5.4-5.4L9 10.6 10.6 9l5.4 5.4L21.4 9l1.6 1.6-5.4 5.4 5.4 5.4-1.6 1.6z" opacity="0"/></svg></svg>