<svg version="1" xmlns="http://www.w3.org/2000/svg" viewBox="0 0 149 178"><path fill="{mapIconColor}" stroke="#FFF" stroke-width="6" stroke-miterlimit="10" d="M126 23l-6-6A69 69 0 0 0 74 1a69 69 0 0 0-51 22A70 70 0 0 0 1 74c0 21 7 38 22 52l43 47c6 6 11 6 16 0l48-51c12-13 18-29 18-48 0-20-8-37-22-51z"/>
    <circle fill="#ffffff" cx="74" cy="75" r="61"/><circle fill="{mapIconColorInnerCircle}" cx="74" cy="75" r="{pinInnerCircleRadius}"/>
        <svg xmlns="http://www.w3.org/2000/svg" viewBox="-11.3 -6 55 55">
            <path fill="#8F8B8B" d="M29.416 14.59L17.41 2.585a1.994 1.994 0 0 0-2.82 0L2.585 14.591a1.994 1.994 0 0 0 0 2.819L14.59 29.416a1.994 1.994 0 0 0 2.819 0L29.416 17.41a1.994 1.994 0 0 0 0-2.82zM16 24a1.5 1.5 0 1 1 1.5-1.5A1.5 1.5 0 0 1 16 24zm1.125-6.752v1.877h-2.25V15H17a1.875 1.875 0 0 0 0-3.75h-2a1.877 1.877 0 0 0-1.875 1.875v.5h-2.25v-.5A4.13 4.13 0 0 1 15 9h2a4.125 4.125 0 0 1 .125 8.248z"/>
            <path d="M16 21a1.5 1.5 0 1 1-1.5 1.5A1.5 1.5 0 0 1 16 21zm1.125-3.752A4.125 4.125 0 0 0 17 9h-2a4.13 4.13 0 0 0-4.125 4.125v.5h2.25v-.5A1.877 1.877 0 0 1 15 11.25h2A1.875 1.875 0 0 1 17 15h-2.125v4.125h2.25z" opacity="0"/>
        </svg>
</svg>
