<svg version="1" xmlns="http://www.w3.org/2000/svg" viewBox="0 0 149 178"><path fill="{mapIconColor}" stroke="#FFF" stroke-width="6" stroke-miterlimit="10" d="M126 23l-6-6A69 69 0 0 0 74 1a69 69 0 0 0-51 22A70 70 0 0 0 1 74c0 21 7 38 22 52l43 47c6 6 11 6 16 0l48-51c12-13 18-29 18-48 0-20-8-37-22-51z"/>
    <circle fill="#ffffff" cx="74" cy="75" r="61"/><circle fill="{mapIconColorInnerCircle}" cx="74" cy="75" r="{pinInnerCircleRadius}"/>
        <svg xmlns="http://www.w3.org/2000/svg" viewBox="-11.3 -6 55 55">
            <path fill="#da1e28" d="M16 2C8.2 2 2 8.2 2 16s6.2 14 14 14 14-6.2 14-14S23.8 2 16 2zm5.4 21L9 10.6 10.6 9 23 21.4 21.4 23z"/>
            <path d="M21.4 23L9 10.6 10.6 9 23 21.4 21.4 23z" opacity="0"/>
       </svg>
</svg>
